  0
SECTION
  2
HEADER
  9
$ACADVER
  1
AC1015
  9
$ACADMAINTVER
 70
     6
  9
$DWGCODEPAGE
  3
ANSI_1252
  9
$INSBASE
 10
0.0
 20
0.0
 30
0.0
  9
$EXTMIN
 10
3.313
 20
0.313
 30
0.0
  9
$EXTMAX
 10
8.71
 20
5.076999999999999
 30
0.0
  9
$LIMMIN
 10
0.0
 20
0.0
  9
$LIMMAX
 10
12.0
 20
9.0
  9
$ORTHOMODE
 70
     0
  9
$REGENMODE
 70
     1
  9
$FILLMODE
 70
     1
  9
$QTEXTMODE
 70
     0
  9
$MIRRTEXT
 70
     1
  9
$LTSCALE
 40
1.0
  9
$ATTMODE
 70
     1
  9
$TEXTSIZE
 40
0.2
  9
$TRACEWID
 40
0.05
  9
$TEXTSTYLE
  7
STANDARD
  9
$CLAYER
  8
0
  9
$CELTYPE
  6
BYLAYER
  9
$CECOLOR
 62
   256
  9
$CELTSCALE
 40
1.0
  9
$DISPSILH
 70
     0
  9
$DIMSCALE
 40
1.0
  9
$DIMASZ
 40
0.18
  9
$DIMEXO
 40
0.0625
  9
$DIMDLI
 40
0.38
  9
$DIMRND
 40
0.0
  9
$DIMDLE
 40
0.0
  9
$DIMEXE
 40
0.18
  9
$DIMTP
 40
0.0
  9
$DIMTM
 40
0.0
  9
$DIMTXT
 40
0.18
  9
$DIMCEN
 40
0.09
  9
$DIMTSZ
 40
0.0
  9
$DIMTOL
 70
     0
  9
$DIMLIM
 70
     0
  9
$DIMTIH
 70
     1
  9
$DIMTOH
 70
     1
  9
$DIMSE1
 70
     0
  9
$DIMSE2
 70
     0
  9
$DIMTAD
 70
     0
  9
$DIMZIN
 70
     0
  9
$DIMBLK
  1

  9
$DIMASO
 70
     1
  9
$DIMSHO
 70
     1
  9
$DIMPOST
  1

  9
$DIMAPOST
  1

  9
$DIMALT
 70
     0
  9
$DIMALTD
 70
     2
  9
$DIMALTF
 40
25.4
  9
$DIMLFAC
 40
1.0
  9
$DIMTOFL
 70
     0
  9
$DIMTVP
 40
0.0
  9
$DIMTIX
 70
     0
  9
$DIMSOXD
 70
     0
  9
$DIMSAH
 70
     0
  9
$DIMBLK1
  1

  9
$DIMBLK2
  1

  9
$DIMSTYLE
  2
STANDARD
  9
$DIMCLRD
 70
     0
  9
$DIMCLRE
 70
     0
  9
$DIMCLRT
 70
     0
  9
$DIMTFAC
 40
1.0
  9
$DIMGAP
 40
0.09
  9
$DIMJUST
 70
     0
  9
$DIMSD1
 70
     0
  9
$DIMSD2
 70
     0
  9
$DIMTOLJ
 70
     1
  9
$DIMTZIN
 70
     0
  9
$DIMALTZ
 70
     0
  9
$DIMALTTZ
 70
     0
  9
$DIMUPT
 70
     0
  9
$DIMDEC
 70
     4
  9
$DIMTDEC
 70
     4
  9
$DIMALTU
 70
     2
  9
$DIMALTTD
 70
     2
  9
$DIMTXSTY
  7
STANDARD
  9
$DIMAUNIT
 70
     0
  9
$DIMADEC
 70
     0
  9
$DIMALTRND
 40
0.0
  9
$DIMAZIN
 70
     0
  9
$DIMDSEP
 70
    46
  9
$DIMATFIT
 70
     3
  9
$DIMFRAC
 70
     0
  9
$DIMLDRBLK
  1

  9
$DIMLUNIT
 70
     2
  9
$DIMLWD
 70
    -2
  9
$DIMLWE
 70
    -2
  9
$DIMTMOVE
 70
     0
  9
$LUNITS
 70
     2
  9
$LUPREC
 70
     4
  9
$SKETCHINC
 40
0.1
  9
$FILLETRAD
 40
0.0
  9
$AUNITS
 70
     0
  9
$AUPREC
 70
     0
  9
$MENU
  1
acad
  9
$ELEVATION
 40
0.0
  9
$PELEVATION
 40
0.0
  9
$THICKNESS
 40
0.0
  9
$LIMCHECK
 70
     0
  9
$CHAMFERA
 40
0.0
  9
$CHAMFERB
 40
0.0
  9
$CHAMFERC
 40
0.0
  9
$CHAMFERD
 40
0.0
  9
$SKPOLY
 70
     0
  9
$TDCREATE
 40
2450263.656895486
  9
$TDUCREATE
 40
2450263.865228819
  9
$TDUPDATE
 40
2452696.474206215
  9
$TDUUPDATE
 40
2452696.682539548
  9
$TDINDWG
 40
0.0023195370
  9
$TDUSRTIMER
 40
0.0023180324
  9
$USRTIMER
 70
     1
  9
$ANGBASE
 50
0.0
  9
$ANGDIR
 70
     0
  9
$PDMODE
 70
     0
  9
$PDSIZE
 40
0.0
  9
$PLINEWID
 40
0.0
  9
$SPLFRAME
 70
     0
  9
$SPLINETYPE
 70
     6
  9
$SPLINESEGS
 70
     8
  9
$HANDSEED
  5
18F
  9
$SURFTAB1
 70
     6
  9
$SURFTAB2
 70
     6
  9
$SURFTYPE
 70
     6
  9
$SURFU
 70
     6
  9
$SURFV
 70
     6
  9
$UCSBASE
  2

  9
$UCSNAME
  2

  9
$UCSORG
 10
0.0
 20
0.0
 30
0.0
  9
$UCSXDIR
 10
1.0
 20
0.0
 30
0.0
  9
$UCSYDIR
 10
0.0
 20
1.0
 30
0.0
  9
$UCSORTHOREF
  2

  9
$UCSORTHOVIEW
 70
     0
  9
$UCSORGTOP
 10
0.0
 20
0.0
 30
0.0
  9
$UCSORGBOTTOM
 10
0.0
 20
0.0
 30
0.0
  9
$UCSORGLEFT
 10
0.0
 20
0.0
 30
0.0
  9
$UCSORGRIGHT
 10
0.0
 20
0.0
 30
0.0
  9
$UCSORGFRONT
 10
0.0
 20
0.0
 30
0.0
  9
$UCSORGBACK
 10
0.0
 20
0.0
 30
0.0
  9
$PUCSBASE
  2

  9
$PUCSNAME
  2

  9
$PUCSORG
 10
0.0
 20
0.0
 30
0.0
  9
$PUCSXDIR
 10
1.0
 20
0.0
 30
0.0
  9
$PUCSYDIR
 10
0.0
 20
1.0
 30
0.0
  9
$PUCSORTHOREF
  2

  9
$PUCSORTHOVIEW
 70
     0
  9
$PUCSORGTOP
 10
0.0
 20
0.0
 30
0.0
  9
$PUCSORGBOTTOM
 10
0.0
 20
0.0
 30
0.0
  9
$PUCSORGLEFT
 10
0.0
 20
0.0
 30
0.0
  9
$PUCSORGRIGHT
 10
0.0
 20
0.0
 30
0.0
  9
$PUCSORGFRONT
 10
0.0
 20
0.0
 30
0.0
  9
$PUCSORGBACK
 10
0.0
 20
0.0
 30
0.0
  9
$USERI1
 70
     0
  9
$USERI2
 70
     0
  9
$USERI3
 70
     0
  9
$USERI4
 70
     0
  9
$USERI5
 70
     0
  9
$USERR1
 40
0.0
  9
$USERR2
 40
0.0
  9
$USERR3
 40
0.0
  9
$USERR4
 40
0.0
  9
$USERR5
 40
0.0
  9
$WORLDVIEW
 70
     1
  9
$SHADEDGE
 70
     3
  9
$SHADEDIF
 70
    70
  9
$TILEMODE
 70
     1
  9
$MAXACTVP
 70
    16
  9
$PINSBASE
 10
0.0
 20
0.0
 30
0.0
  9
$PLIMCHECK
 70
     0
  9
$PEXTMIN
 10
1.000000000000000E+20
 20
1.000000000000000E+20
 30
1.000000000000000E+20
  9
$PEXTMAX
 10
-1.000000000000000E+20
 20
-1.000000000000000E+20
 30
-1.000000000000000E+20
  9
$PLIMMIN
 10
0.0
 20
0.0
  9
$PLIMMAX
 10
12.0
 20
9.0
  9
$UNITMODE
 70
     0
  9
$VISRETAIN
 70
     0
  9
$PLINEGEN
 70
     0
  9
$PSLTSCALE
 70
     1
  9
$TREEDEPTH
 70
  3020
  9
$CMLSTYLE
  2
STANDARD
  9
$CMLJUST
 70
     0
  9
$CMLSCALE
 40
1.0
  9
$PROXYGRAPHICS
 70
     1
  9
$MEASUREMENT
 70
     0
  9
$CELWEIGHT
370
    -1
  9
$ENDCAPS
280
     0
  9
$JOINSTYLE
280
     0
  9
$LWDISPLAY
290
     0
  9
$INSUNITS
 70
     0
  9
$HYPERLINKBASE
  1

  9
$STYLESHEET
  1

  9
$XEDIT
290
     1
  9
$CEPSNTYPE
380
     0
  9
$PSTYLEMODE
290
     1
  9
$FINGERPRINTGUID
  2
{87902095-90CE-4188-A6BE-0D050D26148F}
  9
$VERSIONGUID
  2
{895DB39D-41FA-4FBD-8517-D60BBFF7D9DA}
  9
$EXTNAMES
290
     1
  9
$PSVPSCALE
 40
0.0
  9
$OLESTARTUP
290
     0
  0
ENDSEC
  0
SECTION
  2
CLASSES
  0
CLASS
  1
ACDBDICTIONARYWDFLT
  2
AcDbDictionaryWithDefault
  3
AutoCAD 2000
 90
        0
280
     0
281
     0
  0
CLASS
  1
ACDBPLACEHOLDER
  2
AcDbPlaceHolder
  3
AutoCAD 2000
 90
        0
280
     0
281
     0
  0
CLASS
  1
LAYOUT
  2
AcDbLayout
  3
AutoCAD 2000
 90
        0
280
     0
281
     0
  0
ENDSEC
  0
SECTION
  2
TABLES
  0
TABLE
  2
VPORT
  5
8
330
0
100
AcDbSymbolTable
 70
     3
  0
VPORT
  5
18E
330
8
100
AcDbSymbolTableRecord
100
AcDbViewportTableRecord
  2
*Active
 70
     0
 10
0.0
 20
0.0
 11
1.0
 21
1.0
 12
6.464577323455946
 22
3.040166083728481
 13
0.0
 23
0.0
 14
1.0
 24
1.0
 15
0.0
 25
0.0
 16
0.0
 26
0.0
 36
1.0
 17
0.0
 27
0.0
 37
0.0
 40
6.733188385469031
 41
1.905622489959839
 42
50.0
 43
0.0
 44
0.0
 50
0.0
 51
0.0
 71
     0
 72
   100
 73
     1
 74
     1
 75
     0
 76
     0
 77
     0
 78
     0
281
     0
 65
     1
110
0.0
120
0.0
130
0.0
111
1.0
121
0.0
131
0.0
112
0.0
122
1.0
132
0.0
 79
     0
146
0.0
  0
ENDTAB
  0
TABLE
  2
LTYPE
  5
5
330
0
100
AcDbSymbolTable
 70
     1
  0
LTYPE
  5
14
330
5
100
AcDbSymbolTableRecord
100
AcDbLinetypeTableRecord
  2
BYBLOCK
 70
     0
  3

 72
    65
 73
     0
 40
0.0
  0
LTYPE
  5
15
330
5
100
AcDbSymbolTableRecord
100
AcDbLinetypeTableRecord
  2
BYLAYER
 70
     0
  3

 72
    65
 73
     0
 40
0.0
  0
LTYPE
  5
16
330
5
100
AcDbSymbolTableRecord
100
AcDbLinetypeTableRecord
  2
CONTINUOUS
 70
     0
  3
Solid line
 72
    65
 73
     0
 40
0.0
  0
ENDTAB
  0
TABLE
  2
LAYER
  5
2
330
0
100
AcDbSymbolTable
 70
     1
  0
LAYER
  5
F
330
2
100
AcDbSymbolTableRecord
100
AcDbLayerTableRecord
  2
0
 70
     0
 62
     7
  6
CONTINUOUS
370
    -3
390
186
  0
ENDTAB
  0
TABLE
  2
STYLE
  5
3
330
0
100
AcDbSymbolTable
 70
     1
  0
STYLE
  5
10
330
3
100
AcDbSymbolTableRecord
100
AcDbTextStyleTableRecord
  2
STANDARD
 70
     0
 40
0.0
 41
1.0
 50
0.0
 71
     0
 42
0.2
  3
txt
  4

  0
ENDTAB
  0
TABLE
  2
VIEW
  5
6
330
0
100
AcDbSymbolTable
 70
     0
  0
ENDTAB
  0
TABLE
  2
UCS
  5
7
330
0
100
AcDbSymbolTable
 70
     0
  0
ENDTAB
  0
TABLE
  2
APPID
  5
9
330
0
100
AcDbSymbolTable
 70
     1
  0
APPID
  5
11
330
9
100
AcDbSymbolTableRecord
100
AcDbRegAppTableRecord
  2
ACAD
 70
     0
  0
ENDTAB
  0
TABLE
  2
DIMSTYLE
  5
A
330
0
100
AcDbSymbolTable
 70
     1
100
AcDbDimStyleTable
 71
     0
  0
DIMSTYLE
105
1D
330
A
100
AcDbSymbolTableRecord
100
AcDbDimStyleTableRecord
  2
STANDARD
 70
     0
340
10
  0
ENDTAB
  0
TABLE
  2
BLOCK_RECORD
  5
1
330
0
100
AcDbSymbolTable
 70
     0
  0
BLOCK_RECORD
  5
1A
330
1
100
AcDbSymbolTableRecord
100
AcDbBlockTableRecord
  2
*MODEL_SPACE
340
189
  0
BLOCK_RECORD
  5
17
330
1
100
AcDbSymbolTableRecord
100
AcDbBlockTableRecord
  2
*PAPER_SPACE
340
18A
  0
ENDTAB
  0
ENDSEC
  0
SECTION
  2
BLOCKS
  0
BLOCK
  5
1B
330
1A
100
AcDbEntity
  8
0
100
AcDbBlockBegin
  2
*MODEL_SPACE
 70
     0
 10
0.0
 20
0.0
 30
0.0
  3
*MODEL_SPACE
  1

  0
ENDBLK
  5
1C
330
1A
100
AcDbEntity
  8
0
100
AcDbBlockEnd
  0
BLOCK
  5
18
330
17
100
AcDbEntity
 67
     1
  8
0
100
AcDbBlockBegin
  2
*PAPER_SPACE
 70
     0
 10
0.0
 20
0.0
 30
0.0
  3
*PAPER_SPACE
  1

  0
ENDBLK
  5
19
330
17
100
AcDbEntity
 67
     1
  8
0
100
AcDbBlockEnd
  0
ENDSEC
  0
SECTION
  2
ENTITIES
  0
LINE
  5
28
330
1A
100
AcDbEntity
  8
0
100
AcDbLine
 10
7.727999999999999
 20
2.244
 30
0.0
 11
7.727999999999999
 21
3.348
 31
0.0
  0
LINE
  5
29
330
1A
100
AcDbEntity
  8
0
100
AcDbLine
 10
7.727999999999999
 20
2.244
 30
0.0
 11
4.003
 21
2.244
 31
0.0
  0
LINE
  5
2A
330
1A
100
AcDbEntity
  8
0
100
AcDbLine
 10
4.003
 20
2.244
 30
0.0
 11
4.003
 21
3.348
 31
0.0
  0
LINE
  5
2B
330
1A
100
AcDbEntity
  8
0
100
AcDbLine
 10
4.003
 20
3.348
 30
0.0
 11
7.727999999999999
 21
3.348
 31
0.0
  0
LINE
  5
2C
330
1A
100
AcDbEntity
  8
0
100
AcDbLine
 10
4.693
 20
4.383
 30
0.0
 11
4.554999999999999
 21
4.383
 31
0.0
  0
LINE
  5
2D
330
1A
100
AcDbEntity
  8
0
100
AcDbLine
 10
4.9
 20
4.383
 30
0.0
 11
5.038
 21
4.383
 31
0.0
  0
LINE
  5
2E
330
1A
100
AcDbEntity
  8
0
100
AcDbLine
 10
5.038
 20
4.383
 30
0.0
 11
5.038
 21
3.9
 31
0.0
  0
LINE
  5
2F
330
1A
100
AcDbEntity
  8
0
100
AcDbLine
 10
5.038
 20
3.9
 30
0.0
 11
4.554999999999999
 21
3.9
 31
0.0
  0
LINE
  5
30
330
1A
100
AcDbEntity
  8
0
100
AcDbLine
 10
4.554999999999999
 20
3.9
 30
0.0
 11
4.554999999999999
 21
4.383
 31
0.0
  0
LINE
  5
31
330
1A
100
AcDbEntity
  8
0
100
AcDbLine
 10
4.554999999999999
 20
3.9
 30
0.0
 11
5.038
 21
3.9
 31
0.0
  0
LINE
  5
32
330
1A
100
AcDbEntity
  8
0
100
AcDbLine
 10
5.038
 20
3.9
 30
0.0
 11
5.038
 21
4.383
 31
0.0
  0
LINE
  5
33
330
1A
100
AcDbEntity
  8
0
100
AcDbLine
 10
4.554999999999999
 20
4.383
 30
0.0
 11
4.554999999999999
 21
3.9
 31
0.0
  0
LINE
  5
34
330
1A
100
AcDbEntity
  8
0
100
AcDbLine
 10
4.554999999999999
 20
4.383
 30
0.0
 11
4.693
 21
4.383
 31
0.0
  0
LINE
  5
35
330
1A
100
AcDbEntity
  8
0
100
AcDbLine
 10
4.9
 20
4.383
 30
0.0
 11
5.038
 21
4.383
 31
0.0
  0
LINE
  5
36
330
1A
100
AcDbEntity
  8
0
100
AcDbLine
 10
4.761999999999999
 20
1.693
 30
0.0
 11
4.278999999999999
 21
1.693
 31
0.0
  0
LINE
  5
37
330
1A
100
AcDbEntity
  8
0
100
AcDbLine
 10
4.761999999999999
 20
1.693
 30
0.0
 11
4.761999999999999
 21
1.209999999999999
 31
0.0
  0
LINE
  5
38
330
1A
100
AcDbEntity
  8
0
100
AcDbLine
 10
4.761999999999999
 20
1.209999999999999
 30
0.0
 11
4.623999999999999
 21
1.209999999999999
 31
0.0
  0
LINE
  5
39
330
1A
100
AcDbEntity
  8
0
100
AcDbLine
 10
4.416999999999999
 20
1.209999999999999
 30
0.0
 11
4.278999999999999
 21
1.209999999999999
 31
0.0
  0
LINE
  5
3A
330
1A
100
AcDbEntity
  8
0
100
AcDbLine
 10
4.278999999999999
 20
1.209999999999999
 30
0.0
 11
4.278999999999999
 21
1.693
 31
0.0
  0
LINE
  5
3B
330
1A
100
AcDbEntity
  8
0
100
AcDbLine
 10
4.623999999999999
 20
1.209999999999999
 30
0.0
 11
4.761999999999999
 21
1.209999999999999
 31
0.0
  0
LINE
  5
3C
330
1A
100
AcDbEntity
  8
0
100
AcDbLine
 10
4.416999999999999
 20
1.209999999999999
 30
0.0
 11
4.278999999999999
 21
1.209999999999999
 31
0.0
  0
LINE
  5
3D
330
1A
100
AcDbEntity
  8
0
100
AcDbLine
 10
4.761999999999999
 20
1.209999999999999
 30
0.0
 11
4.761999999999999
 21
1.693
 31
0.0
  0
LINE
  5
3E
330
1A
100
AcDbEntity
  8
0
100
AcDbLine
 10
4.278999999999999
 20
1.693
 30
0.0
 11
4.278999999999999
 21
1.209999999999999
 31
0.0
  0
LINE
  5
3F
330
1A
100
AcDbEntity
  8
0
100
AcDbLine
 10
4.278999999999999
 20
1.693
 30
0.0
 11
4.761999999999999
 21
1.693
 31
0.0
  0
LINE
  5
40
330
1A
100
AcDbEntity
  8
0
100
AcDbLine
 10
6.968999999999999
 20
4.383
 30
0.0
 11
7.107
 21
4.383
 31
0.0
  0
LINE
  5
41
330
1A
100
AcDbEntity
  8
0
100
AcDbLine
 10
7.314
 20
4.383
 30
0.0
 11
7.452
 21
4.383
 31
0.0
  0
LINE
  5
42
330
1A
100
AcDbEntity
  8
0
100
AcDbLine
 10
7.452
 20
4.383
 30
0.0
 11
7.452
 21
3.9
 31
0.0
  0
LINE
  5
43
330
1A
100
AcDbEntity
  8
0
100
AcDbLine
 10
7.452
 20
3.9
 30
0.0
 11
6.968999999999999
 21
3.9
 31
0.0
  0
LINE
  5
44
330
1A
100
AcDbEntity
  8
0
100
AcDbLine
 10
6.968999999999999
 20
3.9
 30
0.0
 11
6.968999999999999
 21
4.383
 31
0.0
  0
LINE
  5
45
330
1A
100
AcDbEntity
  8
0
100
AcDbLine
 10
6.968999999999999
 20
3.9
 30
0.0
 11
7.452
 21
3.9
 31
0.0
  0
LINE
  5
46
330
1A
100
AcDbEntity
  8
0
100
AcDbLine
 10
7.452
 20
3.9
 30
0.0
 11
7.452
 21
4.383
 31
0.0
  0
LINE
  5
47
330
1A
100
AcDbEntity
  8
0
100
AcDbLine
 10
6.968999999999999
 20
4.383
 30
0.0
 11
6.968999999999999
 21
3.9
 31
0.0
  0
LINE
  5
48
330
1A
100
AcDbEntity
  8
0
100
AcDbLine
 10
6.968999999999999
 20
4.383
 30
0.0
 11
7.107
 21
4.383
 31
0.0
  0
LINE
  5
49
330
1A
100
AcDbEntity
  8
0
100
AcDbLine
 10
7.314
 20
4.383
 30
0.0
 11
7.452
 21
4.383
 31
0.0
  0
LINE
  5
4A
330
1A
100
AcDbEntity
  8
0
100
AcDbLine
 10
7.176
 20
1.693
 30
0.0
 11
6.692999999999999
 21
1.693
 31
0.0
  0
LINE
  5
4B
330
1A
100
AcDbEntity
  8
0
100
AcDbLine
 10
7.176
 20
1.693
 30
0.0
 11
7.176
 21
1.209999999999999
 31
0.0
  0
LINE
  5
4C
330
1A
100
AcDbEntity
  8
0
100
AcDbLine
 10
7.176
 20
1.209999999999999
 30
0.0
 11
7.037999999999999
 21
1.209999999999999
 31
0.0
  0
LINE
  5
4D
330
1A
100
AcDbEntity
  8
0
100
AcDbLine
 10
6.831
 20
1.209999999999999
 30
0.0
 11
6.692999999999999
 21
1.209999999999999
 31
0.0
  0
LINE
  5
4E
330
1A
100
AcDbEntity
  8
0
100
AcDbLine
 10
6.692999999999999
 20
1.209999999999999
 30
0.0
 11
6.692999999999999
 21
1.693
 31
0.0
  0
LINE
  5
4F
330
1A
100
AcDbEntity
  8
0
100
AcDbLine
 10
7.037999999999999
 20
1.209999999999999
 30
0.0
 11
7.176
 21
1.209999999999999
 31
0.0
  0
LINE
  5
50
330
1A
100
AcDbEntity
  8
0
100
AcDbLine
 10
6.831
 20
1.209999999999999
 30
0.0
 11
6.692999999999999
 21
1.209999999999999
 31
0.0
  0
LINE
  5
51
330
1A
100
AcDbEntity
  8
0
100
AcDbLine
 10
7.176
 20
1.209999999999999
 30
0.0
 11
7.176
 21
1.693
 31
0.0
  0
LINE
  5
52
330
1A
100
AcDbEntity
  8
0
100
AcDbLine
 10
6.692999999999999
 20
1.693
 30
0.0
 11
6.692999999999999
 21
1.209999999999999
 31
0.0
  0
LINE
  5
53
330
1A
100
AcDbEntity
  8
0
100
AcDbLine
 10
6.692999999999999
 20
1.693
 30
0.0
 11
7.176
 21
1.693
 31
0.0
  0
LINE
  5
54
330
1A
100
AcDbEntity
  8
0
100
AcDbLine
 10
4.9
 20
4.383
 30
0.0
 11
4.693
 21
4.383
 31
0.0
  0
LINE
  5
55
330
1A
100
AcDbEntity
  8
0
100
AcDbLine
 10
4.9
 20
4.383
 30
0.0
 11
4.9
 21
4.245
 31
0.0
  0
LINE
  5
56
330
1A
100
AcDbEntity
  8
0
100
AcDbLine
 10
4.9
 20
4.245
 30
0.0
 11
4.693
 21
4.245
 31
0.0
  0
LINE
  5
57
330
1A
100
AcDbEntity
  8
0
100
AcDbLine
 10
4.693
 20
4.245
 30
0.0
 11
4.693
 21
4.383
 31
0.0
  0
LINE
  5
58
330
1A
100
AcDbEntity
  8
0
100
AcDbLine
 10
4.693
 20
4.245
 30
0.0
 11
4.9
 21
4.245
 31
0.0
  0
LINE
  5
59
330
1A
100
AcDbEntity
  8
0
100
AcDbLine
 10
4.693
 20
4.245
 30
0.0
 11
4.693
 21
4.383
 31
0.0
  0
LINE
  5
5A
330
1A
100
AcDbEntity
  8
0
100
AcDbLine
 10
4.693
 20
4.383
 30
0.0
 11
4.9
 21
4.383
 31
0.0
  0
LINE
  5
5B
330
1A
100
AcDbEntity
  8
0
100
AcDbLine
 10
4.9
 20
4.383
 30
0.0
 11
4.9
 21
4.245
 31
0.0
  0
LINE
  5
5C
330
1A
100
AcDbEntity
  8
0
100
AcDbLine
 10
7.107
 20
4.383
 30
0.0
 11
7.314
 21
4.383
 31
0.0
  0
LINE
  5
5D
330
1A
100
AcDbEntity
  8
0
100
AcDbLine
 10
7.314
 20
4.383
 30
0.0
 11
7.314
 21
4.245
 31
0.0
  0
LINE
  5
5E
330
1A
100
AcDbEntity
  8
0
100
AcDbLine
 10
7.314
 20
4.245
 30
0.0
 11
7.107
 21
4.245
 31
0.0
  0
LINE
  5
5F
330
1A
100
AcDbEntity
  8
0
100
AcDbLine
 10
7.107
 20
4.245
 30
0.0
 11
7.107
 21
4.383
 31
0.0
  0
LINE
  5
60
330
1A
100
AcDbEntity
  8
0
100
AcDbLine
 10
7.107
 20
4.245
 30
0.0
 11
7.314
 21
4.245
 31
0.0
  0
LINE
  5
61
330
1A
100
AcDbEntity
  8
0
100
AcDbLine
 10
7.107
 20
4.245
 30
0.0
 11
7.107
 21
4.383
 31
0.0
  0
LINE
  5
62
330
1A
100
AcDbEntity
  8
0
100
AcDbLine
 10
7.107
 20
4.383
 30
0.0
 11
7.314
 21
4.383
 31
0.0
  0
LINE
  5
63
330
1A
100
AcDbEntity
  8
0
100
AcDbLine
 10
7.314
 20
4.383
 30
0.0
 11
7.314
 21
4.245
 31
0.0
  0
LINE
  5
64
330
1A
100
AcDbEntity
  8
0
100
AcDbLine
 10
4.623999999999999
 20
1.348
 30
0.0
 11
4.416999999999999
 21
1.348
 31
0.0
  0
LINE
  5
65
330
1A
100
AcDbEntity
  8
0
100
AcDbLine
 10
4.623999999999999
 20
1.348
 30
0.0
 11
4.623999999999999
 21
1.209999999999999
 31
0.0
  0
LINE
  5
66
330
1A
100
AcDbEntity
  8
0
100
AcDbLine
 10
4.623999999999999
 20
1.209999999999999
 30
0.0
 11
4.416999999999999
 21
1.209999999999999
 31
0.0
  0
LINE
  5
67
330
1A
100
AcDbEntity
  8
0
100
AcDbLine
 10
4.416999999999999
 20
1.209999999999999
 30
0.0
 11
4.416999999999999
 21
1.348
 31
0.0
  0
LINE
  5
68
330
1A
100
AcDbEntity
  8
0
100
AcDbLine
 10
4.416999999999999
 20
1.209999999999999
 30
0.0
 11
4.623999999999999
 21
1.209999999999999
 31
0.0
  0
LINE
  5
69
330
1A
100
AcDbEntity
  8
0
100
AcDbLine
 10
4.416999999999999
 20
1.209999999999999
 30
0.0
 11
4.416999999999999
 21
1.348
 31
0.0
  0
LINE
  5
6A
330
1A
100
AcDbEntity
  8
0
100
AcDbLine
 10
4.416999999999999
 20
1.348
 30
0.0
 11
4.623999999999999
 21
1.348
 31
0.0
  0
LINE
  5
6B
330
1A
100
AcDbEntity
  8
0
100
AcDbLine
 10
4.623999999999999
 20
1.348
 30
0.0
 11
4.623999999999999
 21
1.209999999999999
 31
0.0
  0
LINE
  5
6C
330
1A
100
AcDbEntity
  8
0
100
AcDbLine
 10
6.831
 20
1.348
 30
0.0
 11
7.037999999999999
 21
1.348
 31
0.0
  0
LINE
  5
6D
330
1A
100
AcDbEntity
  8
0
100
AcDbLine
 10
7.037999999999999
 20
1.348
 30
0.0
 11
7.037999999999999
 21
1.209999999999999
 31
0.0
  0
LINE
  5
6E
330
1A
100
AcDbEntity
  8
0
100
AcDbLine
 10
7.037999999999999
 20
1.209999999999999
 30
0.0
 11
6.831
 21
1.209999999999999
 31
0.0
  0
LINE
  5
6F
330
1A
100
AcDbEntity
  8
0
100
AcDbLine
 10
6.831
 20
1.209999999999999
 30
0.0
 11
6.831
 21
1.348
 31
0.0
  0
LINE
  5
70
330
1A
100
AcDbEntity
  8
0
100
AcDbLine
 10
6.831
 20
1.209999999999999
 30
0.0
 11
7.037999999999999
 21
1.209999999999999
 31
0.0
  0
LINE
  5
71
330
1A
100
AcDbEntity
  8
0
100
AcDbLine
 10
6.831
 20
1.209999999999999
 30
0.0
 11
6.831
 21
1.348
 31
0.0
  0
LINE
  5
72
330
1A
100
AcDbEntity
  8
0
100
AcDbLine
 10
6.831
 20
1.348
 30
0.0
 11
7.037999999999999
 21
1.348
 31
0.0
  0
LINE
  5
73
330
1A
100
AcDbEntity
  8
0
100
AcDbLine
 10
7.037999999999999
 20
1.348
 30
0.0
 11
7.037999999999999
 21
1.209999999999999
 31
0.0
  0
LINE
  5
74
330
1A
100
AcDbEntity
  8
0
100
AcDbLine
 10
7.037999999999999
 20
0.451
 30
0.0
 11
6.831
 21
0.451
 31
0.0
  0
LINE
  5
75
330
1A
100
AcDbEntity
  8
0
100
AcDbLine
 10
7.037999999999999
 20
0.451
 30
0.0
 11
7.037999999999999
 21
0.313
 31
0.0
  0
LINE
  5
76
330
1A
100
AcDbEntity
  8
0
100
AcDbLine
 10
7.037999999999999
 20
0.313
 30
0.0
 11
6.831
 21
0.313
 31
0.0
  0
LINE
  5
77
330
1A
100
AcDbEntity
  8
0
100
AcDbLine
 10
6.831
 20
0.313
 30
0.0
 11
6.831
 21
0.451
 31
0.0
  0
LINE
  5
78
330
1A
100
AcDbEntity
  8
0
100
AcDbLine
 10
6.831
 20
0.313
 30
0.0
 11
7.037999999999999
 21
0.313
 31
0.0
  0
LINE
  5
79
330
1A
100
AcDbEntity
  8
0
100
AcDbLine
 10
6.831
 20
0.313
 30
0.0
 11
6.831
 21
0.451
 31
0.0
  0
LINE
  5
7A
330
1A
100
AcDbEntity
  8
0
100
AcDbLine
 10
6.831
 20
0.451
 30
0.0
 11
7.037999999999999
 21
0.451
 31
0.0
  0
LINE
  5
7B
330
1A
100
AcDbEntity
  8
0
100
AcDbLine
 10
7.037999999999999
 20
0.451
 30
0.0
 11
7.037999999999999
 21
0.313
 31
0.0
  0
LINE
  5
7C
330
1A
100
AcDbEntity
  8
0
100
AcDbLine
 10
7.176
 20
0.7959999999999999
 30
0.0
 11
6.692999999999999
 21
0.7959999999999999
 31
0.0
  0
LINE
  5
7D
330
1A
100
AcDbEntity
  8
0
100
AcDbLine
 10
7.176
 20
0.7959999999999999
 30
0.0
 11
7.176
 21
0.313
 31
0.0
  0
LINE
  5
7E
330
1A
100
AcDbEntity
  8
0
100
AcDbLine
 10
7.176
 20
0.313
 30
0.0
 11
7.037999999999999
 21
0.313
 31
0.0
  0
LINE
  5
7F
330
1A
100
AcDbEntity
  8
0
100
AcDbLine
 10
6.831
 20
0.313
 30
0.0
 11
6.692999999999999
 21
0.313
 31
0.0
  0
LINE
  5
80
330
1A
100
AcDbEntity
  8
0
100
AcDbLine
 10
6.692999999999999
 20
0.313
 30
0.0
 11
6.692999999999999
 21
0.7959999999999999
 31
0.0
  0
LINE
  5
81
330
1A
100
AcDbEntity
  8
0
100
AcDbLine
 10
7.037999999999999
 20
0.313
 30
0.0
 11
7.176
 21
0.313
 31
0.0
  0
LINE
  5
82
330
1A
100
AcDbEntity
  8
0
100
AcDbLine
 10
6.831
 20
0.313
 30
0.0
 11
6.692999999999999
 21
0.313
 31
0.0
  0
LINE
  5
83
330
1A
100
AcDbEntity
  8
0
100
AcDbLine
 10
7.176
 20
0.313
 30
0.0
 11
7.176
 21
0.7959999999999999
 31
0.0
  0
LINE
  5
84
330
1A
100
AcDbEntity
  8
0
100
AcDbLine
 10
6.692999999999999
 20
0.7959999999999999
 30
0.0
 11
6.692999999999999
 21
0.313
 31
0.0
  0
LINE
  5
85
330
1A
100
AcDbEntity
  8
0
100
AcDbLine
 10
6.692999999999999
 20
0.7959999999999999
 30
0.0
 11
7.176
 21
0.7959999999999999
 31
0.0
  0
LINE
  5
86
330
1A
100
AcDbEntity
  8
0
100
AcDbLine
 10
6.968999999999999
 20
1.554999999999999
 30
0.0
 11
6.9
 21
1.554999999999999
 31
0.0
  0
LINE
  5
87
330
1A
100
AcDbEntity
  8
0
100
AcDbLine
 10
6.968999999999999
 20
1.554999999999999
 30
0.0
 11
6.968999999999999
 21
1.348
 31
0.0
  0
LINE
  5
88
330
1A
100
AcDbEntity
  8
0
100
AcDbLine
 10
6.968999999999999
 20
1.348
 30
0.0
 11
6.9
 21
1.348
 31
0.0
  0
LINE
  5
89
330
1A
100
AcDbEntity
  8
0
100
AcDbLine
 10
6.9
 20
1.348
 30
0.0
 11
6.9
 21
1.554999999999999
 31
0.0
  0
LINE
  5
8A
330
1A
100
AcDbEntity
  8
0
100
AcDbLine
 10
6.9
 20
1.348
 30
0.0
 11
6.968999999999999
 21
1.348
 31
0.0
  0
LINE
  5
8B
330
1A
100
AcDbEntity
  8
0
100
AcDbLine
 10
6.968999999999999
 20
1.348
 30
0.0
 11
6.968999999999999
 21
1.554999999999999
 31
0.0
  0
LINE
  5
8C
330
1A
100
AcDbEntity
  8
0
100
AcDbLine
 10
6.9
 20
1.554999999999999
 30
0.0
 11
6.9
 21
1.348
 31
0.0
  0
LINE
  5
8D
330
1A
100
AcDbEntity
  8
0
100
AcDbLine
 10
6.9
 20
1.554999999999999
 30
0.0
 11
6.968999999999999
 21
1.554999999999999
 31
0.0
  0
LINE
  5
8E
330
1A
100
AcDbEntity
  8
0
100
AcDbLine
 10
6.968999999999999
 20
0.658
 30
0.0
 11
6.9
 21
0.658
 31
0.0
  0
LINE
  5
8F
330
1A
100
AcDbEntity
  8
0
100
AcDbLine
 10
6.968999999999999
 20
0.658
 30
0.0
 11
6.968999999999999
 21
0.451
 31
0.0
  0
LINE
  5
90
330
1A
100
AcDbEntity
  8
0
100
AcDbLine
 10
6.968999999999999
 20
0.451
 30
0.0
 11
6.9
 21
0.451
 31
0.0
  0
LINE
  5
91
330
1A
100
AcDbEntity
  8
0
100
AcDbLine
 10
6.9
 20
0.451
 30
0.0
 11
6.9
 21
0.658
 31
0.0
  0
LINE
  5
92
330
1A
100
AcDbEntity
  8
0
100
AcDbLine
 10
6.9
 20
0.451
 30
0.0
 11
6.968999999999999
 21
0.451
 31
0.0
  0
LINE
  5
93
330
1A
100
AcDbEntity
  8
0
100
AcDbLine
 10
6.968999999999999
 20
0.451
 30
0.0
 11
6.968999999999999
 21
0.658
 31
0.0
  0
LINE
  5
94
330
1A
100
AcDbEntity
  8
0
100
AcDbLine
 10
6.9
 20
0.658
 30
0.0
 11
6.9
 21
0.451
 31
0.0
  0
LINE
  5
95
330
1A
100
AcDbEntity
  8
0
100
AcDbLine
 10
6.9
 20
0.658
 30
0.0
 11
6.968999999999999
 21
0.658
 31
0.0
  0
LINE
  5
96
330
1A
100
AcDbEntity
  8
0
100
AcDbLine
 10
4.554999999999999
 20
1.554999999999999
 30
0.0
 11
4.486
 21
1.554999999999999
 31
0.0
  0
LINE
  5
97
330
1A
100
AcDbEntity
  8
0
100
AcDbLine
 10
4.554999999999999
 20
1.554999999999999
 30
0.0
 11
4.554999999999999
 21
1.348
 31
0.0
  0
LINE
  5
98
330
1A
100
AcDbEntity
  8
0
100
AcDbLine
 10
4.554999999999999
 20
1.348
 30
0.0
 11
4.486
 21
1.348
 31
0.0
  0
LINE
  5
99
330
1A
100
AcDbEntity
  8
0
100
AcDbLine
 10
4.486
 20
1.348
 30
0.0
 11
4.486
 21
1.554999999999999
 31
0.0
  0
LINE
  5
9A
330
1A
100
AcDbEntity
  8
0
100
AcDbLine
 10
4.486
 20
1.348
 30
0.0
 11
4.554999999999999
 21
1.348
 31
0.0
  0
LINE
  5
9B
330
1A
100
AcDbEntity
  8
0
100
AcDbLine
 10
4.554999999999999
 20
1.348
 30
0.0
 11
4.554999999999999
 21
1.554999999999999
 31
0.0
  0
LINE
  5
9C
330
1A
100
AcDbEntity
  8
0
100
AcDbLine
 10
4.486
 20
1.554999999999999
 30
0.0
 11
4.486
 21
1.348
 31
0.0
  0
LINE
  5
9D
330
1A
100
AcDbEntity
  8
0
100
AcDbLine
 10
4.486
 20
1.554999999999999
 30
0.0
 11
4.554999999999999
 21
1.554999999999999
 31
0.0
  0
LINE
  5
9E
330
1A
100
AcDbEntity
  8
0
100
AcDbLine
 10
4.761999999999999
 20
4.245
 30
0.0
 11
4.831
 21
4.245
 31
0.0
  0
LINE
  5
9F
330
1A
100
AcDbEntity
  8
0
100
AcDbLine
 10
4.831
 20
4.245
 30
0.0
 11
4.831
 21
4.038
 31
0.0
  0
LINE
  5
A0
330
1A
100
AcDbEntity
  8
0
100
AcDbLine
 10
4.831
 20
4.038
 30
0.0
 11
4.761999999999999
 21
4.038
 31
0.0
  0
LINE
  5
A1
330
1A
100
AcDbEntity
  8
0
100
AcDbLine
 10
4.761999999999999
 20
4.038
 30
0.0
 11
4.761999999999999
 21
4.245
 31
0.0
  0
LINE
  5
A2
330
1A
100
AcDbEntity
  8
0
100
AcDbLine
 10
4.761999999999999
 20
4.038
 30
0.0
 11
4.831
 21
4.038
 31
0.0
  0
LINE
  5
A3
330
1A
100
AcDbEntity
  8
0
100
AcDbLine
 10
4.831
 20
4.038
 30
0.0
 11
4.831
 21
4.245
 31
0.0
  0
LINE
  5
A4
330
1A
100
AcDbEntity
  8
0
100
AcDbLine
 10
4.761999999999999
 20
4.245
 30
0.0
 11
4.761999999999999
 21
4.038
 31
0.0
  0
LINE
  5
A5
330
1A
100
AcDbEntity
  8
0
100
AcDbLine
 10
4.761999999999999
 20
4.245
 30
0.0
 11
4.831
 21
4.245
 31
0.0
  0
LINE
  5
A6
330
1A
100
AcDbEntity
  8
0
100
AcDbLine
 10
7.176
 20
4.245
 30
0.0
 11
7.245
 21
4.245
 31
0.0
  0
LINE
  5
A7
330
1A
100
AcDbEntity
  8
0
100
AcDbLine
 10
7.245
 20
4.245
 30
0.0
 11
7.245
 21
4.038
 31
0.0
  0
LINE
  5
A8
330
1A
100
AcDbEntity
  8
0
100
AcDbLine
 10
7.245
 20
4.038
 30
0.0
 11
7.176
 21
4.038
 31
0.0
  0
LINE
  5
A9
330
1A
100
AcDbEntity
  8
0
100
AcDbLine
 10
7.176
 20
4.038
 30
0.0
 11
7.176
 21
4.245
 31
0.0
  0
LINE
  5
AA
330
1A
100
AcDbEntity
  8
0
100
AcDbLine
 10
7.176
 20
4.038
 30
0.0
 11
7.245
 21
4.038
 31
0.0
  0
LINE
  5
AB
330
1A
100
AcDbEntity
  8
0
100
AcDbLine
 10
7.245
 20
4.038
 30
0.0
 11
7.245
 21
4.245
 31
0.0
  0
LINE
  5
AC
330
1A
100
AcDbEntity
  8
0
100
AcDbLine
 10
7.176
 20
4.245
 30
0.0
 11
7.176
 21
4.038
 31
0.0
  0
LINE
  5
AD
330
1A
100
AcDbEntity
  8
0
100
AcDbLine
 10
7.176
 20
4.245
 30
0.0
 11
7.245
 21
4.245
 31
0.0
  0
LINE
  5
AE
330
1A
100
AcDbEntity
  8
0
100
AcDbLine
 10
5.033999999999999
 20
4.818999999999999
 30
0.0
 11
4.964999999999999
 21
4.818999999999999
 31
0.0
  0
LINE
  5
AF
330
1A
100
AcDbEntity
  8
0
100
AcDbLine
 10
4.964999999999999
 20
4.818999999999999
 30
0.0
 11
5.033999999999999
 21
4.818999999999999
 31
0.0
  0
LINE
  5
B0
330
1A
100
AcDbEntity
  8
0
100
AcDbLine
 10
4.998999999999999
 20
4.818999999999999
 30
0.0
 11
4.998999999999999
 21
5.025
 31
0.0
  0
LINE
  5
B1
330
1A
100
AcDbEntity
  8
0
100
AcDbLine
 10
4.998999999999999
 20
5.025
 30
0.0
 11
4.998999999999999
 21
4.818999999999999
 31
0.0
  0
LINE
  5
B2
330
1A
100
AcDbEntity
  8
0
100
AcDbLine
 10
4.998999999999999
 20
5.025
 30
0.0
 11
4.964999999999999
 21
4.991
 31
0.0
  0
LINE
  5
B3
330
1A
100
AcDbEntity
  8
0
100
AcDbLine
 10
4.964999999999999
 20
4.991
 30
0.0
 11
4.998999999999999
 21
5.025
 31
0.0
  0
LINE
  5
B4
330
1A
100
AcDbEntity
  8
0
100
AcDbLine
 10
4.689
 20
4.818999999999999
 30
0.0
 11
4.551
 21
4.818999999999999
 31
0.0
  0
LINE
  5
B5
330
1A
100
AcDbEntity
  8
0
100
AcDbLine
 10
4.551
 20
4.818999999999999
 30
0.0
 11
4.689
 21
4.818999999999999
 31
0.0
  0
LINE
  5
B6
330
1A
100
AcDbEntity
  8
0
100
AcDbLine
 10
4.551
 20
4.818999999999999
 30
0.0
 11
4.551
 21
5.025
 31
0.0
  0
LINE
  5
B7
330
1A
100
AcDbEntity
  8
0
100
AcDbLine
 10
4.551
 20
5.025
 30
0.0
 11
4.551
 21
4.818999999999999
 31
0.0
  0
LINE
  5
B8
330
1A
100
AcDbEntity
  8
0
100
AcDbLine
 10
4.482
 20
4.818999999999999
 30
0.0
 11
4.343999999999999
 21
4.818999999999999
 31
0.0
  0
LINE
  5
B9
330
1A
100
AcDbEntity
  8
0
100
AcDbLine
 10
4.343999999999999
 20
4.818999999999999
 30
0.0
 11
4.482
 21
4.818999999999999
 31
0.0
  0
LINE
  5
BA
330
1A
100
AcDbEntity
  8
0
100
AcDbLine
 10
4.343999999999999
 20
4.818999999999999
 30
0.0
 11
4.343999999999999
 21
5.025
 31
0.0
  0
LINE
  5
BB
330
1A
100
AcDbEntity
  8
0
100
AcDbLine
 10
4.343999999999999
 20
5.025
 30
0.0
 11
4.343999999999999
 21
4.818999999999999
 31
0.0
  0
LINE
  5
BC
330
1A
100
AcDbEntity
  8
0
100
AcDbLine
 10
4.275
 20
4.818999999999999
 30
0.0
 11
4.136999999999999
 21
4.818999999999999
 31
0.0
  0
LINE
  5
BD
330
1A
100
AcDbEntity
  8
0
100
AcDbLine
 10
4.136999999999999
 20
4.818999999999999
 30
0.0
 11
4.275
 21
4.818999999999999
 31
0.0
  0
LINE
  5
BE
330
1A
100
AcDbEntity
  8
0
100
AcDbLine
 10
4.206
 20
4.921999999999999
 30
0.0
 11
4.136999999999999
 21
4.921999999999999
 31
0.0
  0
LINE
  5
BF
330
1A
100
AcDbEntity
  8
0
100
AcDbLine
 10
4.136999999999999
 20
4.921999999999999
 30
0.0
 11
4.206
 21
4.921999999999999
 31
0.0
  0
LINE
  5
C0
330
1A
100
AcDbEntity
  8
0
100
AcDbLine
 10
4.275
 20
5.025
 30
0.0
 11
4.136999999999999
 21
5.025
 31
0.0
  0
LINE
  5
C1
330
1A
100
AcDbEntity
  8
0
100
AcDbLine
 10
4.136999999999999
 20
5.025
 30
0.0
 11
4.275
 21
5.025
 31
0.0
  0
LINE
  5
C2
330
1A
100
AcDbEntity
  8
0
100
AcDbLine
 10
4.136999999999999
 20
5.025
 30
0.0
 11
4.136999999999999
 21
4.818999999999999
 31
0.0
  0
LINE
  5
C3
330
1A
100
AcDbEntity
  8
0
100
AcDbLine
 10
4.136999999999999
 20
4.818999999999999
 30
0.0
 11
4.136999999999999
 21
5.025
 31
0.0
  0
LINE
  5
C4
330
1A
100
AcDbEntity
  8
0
100
AcDbLine
 10
4.068
 20
4.991
 30
0.0
 11
4.033
 21
5.025
 31
0.0
  0
LINE
  5
C5
330
1A
100
AcDbEntity
  8
0
100
AcDbLine
 10
4.033
 20
5.025
 30
0.0
 11
4.068
 21
4.991
 31
0.0
  0
LINE
  5
C6
330
1A
100
AcDbEntity
  8
0
100
AcDbLine
 10
4.033
 20
5.025
 30
0.0
 11
3.964
 21
5.025
 31
0.0
  0
LINE
  5
C7
330
1A
100
AcDbEntity
  8
0
100
AcDbLine
 10
3.964
 20
5.025
 30
0.0
 11
4.033
 21
5.025
 31
0.0
  0
LINE
  5
C8
330
1A
100
AcDbEntity
  8
0
100
AcDbLine
 10
3.964
 20
5.025
 30
0.0
 11
3.93
 21
4.991
 31
0.0
  0
LINE
  5
C9
330
1A
100
AcDbEntity
  8
0
100
AcDbLine
 10
3.93
 20
4.991
 30
0.0
 11
3.964
 21
5.025
 31
0.0
  0
LINE
  5
CA
330
1A
100
AcDbEntity
  8
0
100
AcDbLine
 10
3.93
 20
4.991
 30
0.0
 11
3.93
 21
4.852999999999999
 31
0.0
  0
LINE
  5
CB
330
1A
100
AcDbEntity
  8
0
100
AcDbLine
 10
3.93
 20
4.852999999999999
 30
0.0
 11
3.93
 21
4.991
 31
0.0
  0
LINE
  5
CC
330
1A
100
AcDbEntity
  8
0
100
AcDbLine
 10
3.93
 20
4.852999999999999
 30
0.0
 11
3.964
 21
4.818999999999999
 31
0.0
  0
LINE
  5
CD
330
1A
100
AcDbEntity
  8
0
100
AcDbLine
 10
3.964
 20
4.818999999999999
 30
0.0
 11
3.93
 21
4.852999999999999
 31
0.0
  0
LINE
  5
CE
330
1A
100
AcDbEntity
  8
0
100
AcDbLine
 10
3.964
 20
4.818999999999999
 30
0.0
 11
4.033
 21
4.818999999999999
 31
0.0
  0
LINE
  5
CF
330
1A
100
AcDbEntity
  8
0
100
AcDbLine
 10
4.033
 20
4.818999999999999
 30
0.0
 11
3.964
 21
4.818999999999999
 31
0.0
  0
LINE
  5
D0
330
1A
100
AcDbEntity
  8
0
100
AcDbLine
 10
4.033
 20
4.818999999999999
 30
0.0
 11
4.068
 21
4.852999999999999
 31
0.0
  0
LINE
  5
D1
330
1A
100
AcDbEntity
  8
0
100
AcDbLine
 10
4.068
 20
4.852999999999999
 30
0.0
 11
4.033
 21
4.818999999999999
 31
0.0
  0
LINE
  5
D2
330
1A
100
AcDbEntity
  8
0
100
AcDbLine
 10
7.702
 20
4.87
 30
0.0
 11
7.838999999999999
 21
4.87
 31
0.0
  0
LINE
  5
D3
330
1A
100
AcDbEntity
  8
0
100
AcDbLine
 10
7.838999999999999
 20
4.87
 30
0.0
 11
7.702
 21
4.87
 31
0.0
  0
LINE
  5
D4
330
1A
100
AcDbEntity
  8
0
100
AcDbLine
 10
7.702
 20
4.87
 30
0.0
 11
7.702
 21
4.939
 31
0.0
  0
LINE
  5
D5
330
1A
100
AcDbEntity
  8
0
100
AcDbLine
 10
7.702
 20
4.939
 30
0.0
 11
7.702
 21
4.87
 31
0.0
  0
LINE
  5
D6
330
1A
100
AcDbEntity
  8
0
100
AcDbLine
 10
7.702
 20
4.939
 30
0.0
 11
7.736
 21
4.972999999999999
 31
0.0
  0
LINE
  5
D7
330
1A
100
AcDbEntity
  8
0
100
AcDbLine
 10
7.736
 20
4.972999999999999
 30
0.0
 11
7.702
 21
4.939
 31
0.0
  0
LINE
  5
D8
330
1A
100
AcDbEntity
  8
0
100
AcDbLine
 10
7.736
 20
4.972999999999999
 30
0.0
 11
7.804999999999999
 21
4.972999999999999
 31
0.0
  0
LINE
  5
D9
330
1A
100
AcDbEntity
  8
0
100
AcDbLine
 10
7.804999999999999
 20
4.972999999999999
 30
0.0
 11
7.736
 21
4.972999999999999
 31
0.0
  0
LINE
  5
DA
330
1A
100
AcDbEntity
  8
0
100
AcDbLine
 10
7.804999999999999
 20
4.972999999999999
 30
0.0
 11
7.838999999999999
 21
5.008
 31
0.0
  0
LINE
  5
DB
330
1A
100
AcDbEntity
  8
0
100
AcDbLine
 10
7.838999999999999
 20
5.008
 30
0.0
 11
7.804999999999999
 21
4.972999999999999
 31
0.0
  0
LINE
  5
DC
330
1A
100
AcDbEntity
  8
0
100
AcDbLine
 10
7.838999999999999
 20
5.008
 30
0.0
 11
7.838999999999999
 21
5.041999999999999
 31
0.0
  0
LINE
  5
DD
330
1A
100
AcDbEntity
  8
0
100
AcDbLine
 10
7.838999999999999
 20
5.041999999999999
 30
0.0
 11
7.838999999999999
 21
5.008
 31
0.0
  0
LINE
  5
DE
330
1A
100
AcDbEntity
  8
0
100
AcDbLine
 10
7.838999999999999
 20
5.041999999999999
 30
0.0
 11
7.804999999999999
 21
5.076999999999999
 31
0.0
  0
LINE
  5
DF
330
1A
100
AcDbEntity
  8
0
100
AcDbLine
 10
7.804999999999999
 20
5.076999999999999
 30
0.0
 11
7.838999999999999
 21
5.041999999999999
 31
0.0
  0
LINE
  5
E0
330
1A
100
AcDbEntity
  8
0
100
AcDbLine
 10
7.804999999999999
 20
5.076999999999999
 30
0.0
 11
7.736
 21
5.076999999999999
 31
0.0
  0
LINE
  5
E1
330
1A
100
AcDbEntity
  8
0
100
AcDbLine
 10
7.736
 20
5.076999999999999
 30
0.0
 11
7.804999999999999
 21
5.076999999999999
 31
0.0
  0
LINE
  5
E2
330
1A
100
AcDbEntity
  8
0
100
AcDbLine
 10
7.736
 20
5.076999999999999
 30
0.0
 11
7.702
 21
5.041999999999999
 31
0.0
  0
LINE
  5
E3
330
1A
100
AcDbEntity
  8
0
100
AcDbLine
 10
7.702
 20
5.041999999999999
 30
0.0
 11
7.736
 21
5.076999999999999
 31
0.0
  0
LINE
  5
E4
330
1A
100
AcDbEntity
  8
0
100
AcDbLine
 10
7.426
 20
4.87
 30
0.0
 11
7.287999999999999
 21
4.87
 31
0.0
  0
LINE
  5
E5
330
1A
100
AcDbEntity
  8
0
100
AcDbLine
 10
7.287999999999999
 20
4.87
 30
0.0
 11
7.426
 21
4.87
 31
0.0
  0
LINE
  5
E6
330
1A
100
AcDbEntity
  8
0
100
AcDbLine
 10
7.287999999999999
 20
4.87
 30
0.0
 11
7.287999999999999
 21
5.076999999999999
 31
0.0
  0
LINE
  5
E7
330
1A
100
AcDbEntity
  8
0
100
AcDbLine
 10
7.287999999999999
 20
5.076999999999999
 30
0.0
 11
7.287999999999999
 21
4.87
 31
0.0
  0
LINE
  5
E8
330
1A
100
AcDbEntity
  8
0
100
AcDbLine
 10
7.218999999999999
 20
4.87
 30
0.0
 11
7.081
 21
4.87
 31
0.0
  0
LINE
  5
E9
330
1A
100
AcDbEntity
  8
0
100
AcDbLine
 10
7.081
 20
4.87
 30
0.0
 11
7.218999999999999
 21
4.87
 31
0.0
  0
LINE
  5
EA
330
1A
100
AcDbEntity
  8
0
100
AcDbLine
 10
7.081
 20
4.87
 30
0.0
 11
7.081
 21
5.076999999999999
 31
0.0
  0
LINE
  5
EB
330
1A
100
AcDbEntity
  8
0
100
AcDbLine
 10
7.081
 20
5.076999999999999
 30
0.0
 11
7.081
 21
4.87
 31
0.0
  0
LINE
  5
EC
330
1A
100
AcDbEntity
  8
0
100
AcDbLine
 10
7.012
 20
4.87
 30
0.0
 11
6.873999999999999
 21
4.87
 31
0.0
  0
LINE
  5
ED
330
1A
100
AcDbEntity
  8
0
100
AcDbLine
 10
6.873999999999999
 20
4.87
 30
0.0
 11
7.012
 21
4.87
 31
0.0
  0
LINE
  5
EE
330
1A
100
AcDbEntity
  8
0
100
AcDbLine
 10
6.942999999999999
 20
4.972999999999999
 30
0.0
 11
6.873999999999999
 21
4.972999999999999
 31
0.0
  0
LINE
  5
EF
330
1A
100
AcDbEntity
  8
0
100
AcDbLine
 10
6.873999999999999
 20
4.972999999999999
 30
0.0
 11
6.942999999999999
 21
4.972999999999999
 31
0.0
  0
LINE
  5
F0
330
1A
100
AcDbEntity
  8
0
100
AcDbLine
 10
7.012
 20
5.076999999999999
 30
0.0
 11
6.873999999999999
 21
5.076999999999999
 31
0.0
  0
LINE
  5
F1
330
1A
100
AcDbEntity
  8
0
100
AcDbLine
 10
6.873999999999999
 20
5.076999999999999
 30
0.0
 11
7.012
 21
5.076999999999999
 31
0.0
  0
LINE
  5
F2
330
1A
100
AcDbEntity
  8
0
100
AcDbLine
 10
6.873999999999999
 20
5.076999999999999
 30
0.0
 11
6.873999999999999
 21
4.87
 31
0.0
  0
LINE
  5
F3
330
1A
100
AcDbEntity
  8
0
100
AcDbLine
 10
6.873999999999999
 20
4.87
 30
0.0
 11
6.873999999999999
 21
5.076999999999999
 31
0.0
  0
LINE
  5
F4
330
1A
100
AcDbEntity
  8
0
100
AcDbLine
 10
6.804999999999999
 20
5.041999999999999
 30
0.0
 11
6.769999999999999
 21
5.076999999999999
 31
0.0
  0
LINE
  5
F5
330
1A
100
AcDbEntity
  8
0
100
AcDbLine
 10
6.769999999999999
 20
5.076999999999999
 30
0.0
 11
6.804999999999999
 21
5.041999999999999
 31
0.0
  0
LINE
  5
F6
330
1A
100
AcDbEntity
  8
0
100
AcDbLine
 10
6.769999999999999
 20
5.076999999999999
 30
0.0
 11
6.701
 21
5.076999999999999
 31
0.0
  0
LINE
  5
F7
330
1A
100
AcDbEntity
  8
0
100
AcDbLine
 10
6.701
 20
5.076999999999999
 30
0.0
 11
6.769999999999999
 21
5.076999999999999
 31
0.0
  0
LINE
  5
F8
330
1A
100
AcDbEntity
  8
0
100
AcDbLine
 10
6.701
 20
5.076999999999999
 30
0.0
 11
6.667
 21
5.041999999999999
 31
0.0
  0
LINE
  5
F9
330
1A
100
AcDbEntity
  8
0
100
AcDbLine
 10
6.667
 20
5.041999999999999
 30
0.0
 11
6.701
 21
5.076999999999999
 31
0.0
  0
LINE
  5
FA
330
1A
100
AcDbEntity
  8
0
100
AcDbLine
 10
6.667
 20
5.041999999999999
 30
0.0
 11
6.667
 21
4.903999999999999
 31
0.0
  0
LINE
  5
FB
330
1A
100
AcDbEntity
  8
0
100
AcDbLine
 10
6.667
 20
4.903999999999999
 30
0.0
 11
6.667
 21
5.041999999999999
 31
0.0
  0
LINE
  5
FC
330
1A
100
AcDbEntity
  8
0
100
AcDbLine
 10
6.667
 20
4.903999999999999
 30
0.0
 11
6.701
 21
4.87
 31
0.0
  0
LINE
  5
FD
330
1A
100
AcDbEntity
  8
0
100
AcDbLine
 10
6.701
 20
4.87
 30
0.0
 11
6.667
 21
4.903999999999999
 31
0.0
  0
LINE
  5
FE
330
1A
100
AcDbEntity
  8
0
100
AcDbLine
 10
6.701
 20
4.87
 30
0.0
 11
6.769999999999999
 21
4.87
 31
0.0
  0
LINE
  5
FF
330
1A
100
AcDbEntity
  8
0
100
AcDbLine
 10
6.769999999999999
 20
4.87
 30
0.0
 11
6.701
 21
4.87
 31
0.0
  0
LINE
  5
100
330
1A
100
AcDbEntity
  8
0
100
AcDbLine
 10
6.769999999999999
 20
4.87
 30
0.0
 11
6.804999999999999
 21
4.903999999999999
 31
0.0
  0
LINE
  5
101
330
1A
100
AcDbEntity
  8
0
100
AcDbLine
 10
6.804999999999999
 20
4.903999999999999
 30
0.0
 11
6.769999999999999
 21
4.87
 31
0.0
  0
LINE
  5
102
330
1A
100
AcDbEntity
  8
0
100
AcDbLine
 10
4.875
 20
0.9079999999999998
 30
0.0
 11
4.875
 21
0.7020000000000001
 31
0.0
  0
LINE
  5
103
330
1A
100
AcDbEntity
  8
0
100
AcDbLine
 10
4.875
 20
0.7020000000000001
 30
0.0
 11
4.875
 21
0.9079999999999998
 31
0.0
  0
LINE
  5
104
330
1A
100
AcDbEntity
  8
0
100
AcDbLine
 10
4.875
 20
0.9079999999999998
 30
0.0
 11
4.772
 21
0.7709999999999999
 31
0.0
  0
LINE
  5
105
330
1A
100
AcDbEntity
  8
0
100
AcDbLine
 10
4.772
 20
0.7709999999999999
 30
0.0
 11
4.875
 21
0.9079999999999998
 31
0.0
  0
LINE
  5
106
330
1A
100
AcDbEntity
  8
0
100
AcDbLine
 10
4.91
 20
0.7709999999999999
 30
0.0
 11
4.772
 21
0.7709999999999999
 31
0.0
  0
LINE
  5
107
330
1A
100
AcDbEntity
  8
0
100
AcDbLine
 10
4.772
 20
0.7709999999999999
 30
0.0
 11
4.91
 21
0.7709999999999999
 31
0.0
  0
LINE
  5
108
330
1A
100
AcDbEntity
  8
0
100
AcDbLine
 10
4.496
 20
0.7020000000000001
 30
0.0
 11
4.358
 21
0.7020000000000001
 31
0.0
  0
LINE
  5
109
330
1A
100
AcDbEntity
  8
0
100
AcDbLine
 10
4.358
 20
0.7020000000000001
 30
0.0
 11
4.496
 21
0.7020000000000001
 31
0.0
  0
LINE
  5
10A
330
1A
100
AcDbEntity
  8
0
100
AcDbLine
 10
4.358
 20
0.7020000000000001
 30
0.0
 11
4.358
 21
0.9079999999999998
 31
0.0
  0
LINE
  5
10B
330
1A
100
AcDbEntity
  8
0
100
AcDbLine
 10
4.358
 20
0.9079999999999998
 30
0.0
 11
4.358
 21
0.7020000000000001
 31
0.0
  0
LINE
  5
10C
330
1A
100
AcDbEntity
  8
0
100
AcDbLine
 10
4.288999999999999
 20
0.7020000000000001
 30
0.0
 11
4.150999999999999
 21
0.7020000000000001
 31
0.0
  0
LINE
  5
10D
330
1A
100
AcDbEntity
  8
0
100
AcDbLine
 10
4.150999999999999
 20
0.7020000000000001
 30
0.0
 11
4.288999999999999
 21
0.7020000000000001
 31
0.0
  0
LINE
  5
10E
330
1A
100
AcDbEntity
  8
0
100
AcDbLine
 10
4.150999999999999
 20
0.7020000000000001
 30
0.0
 11
4.150999999999999
 21
0.9079999999999998
 31
0.0
  0
LINE
  5
10F
330
1A
100
AcDbEntity
  8
0
100
AcDbLine
 10
4.150999999999999
 20
0.9079999999999998
 30
0.0
 11
4.150999999999999
 21
0.7020000000000001
 31
0.0
  0
LINE
  5
110
330
1A
100
AcDbEntity
  8
0
100
AcDbLine
 10
4.081999999999999
 20
0.7020000000000001
 30
0.0
 11
3.943999999999999
 21
0.7020000000000001
 31
0.0
  0
LINE
  5
111
330
1A
100
AcDbEntity
  8
0
100
AcDbLine
 10
3.943999999999999
 20
0.7020000000000001
 30
0.0
 11
4.081999999999999
 21
0.7020000000000001
 31
0.0
  0
LINE
  5
112
330
1A
100
AcDbEntity
  8
0
100
AcDbLine
 10
4.012999999999999
 20
0.805
 30
0.0
 11
3.943999999999999
 21
0.805
 31
0.0
  0
LINE
  5
113
330
1A
100
AcDbEntity
  8
0
100
AcDbLine
 10
3.943999999999999
 20
0.805
 30
0.0
 11
4.012999999999999
 21
0.805
 31
0.0
  0
LINE
  5
114
330
1A
100
AcDbEntity
  8
0
100
AcDbLine
 10
4.081999999999999
 20
0.9079999999999998
 30
0.0
 11
3.943999999999999
 21
0.9079999999999998
 31
0.0
  0
LINE
  5
115
330
1A
100
AcDbEntity
  8
0
100
AcDbLine
 10
3.943999999999999
 20
0.9079999999999998
 30
0.0
 11
4.081999999999999
 21
0.9079999999999998
 31
0.0
  0
LINE
  5
116
330
1A
100
AcDbEntity
  8
0
100
AcDbLine
 10
3.943999999999999
 20
0.9079999999999998
 30
0.0
 11
3.943999999999999
 21
0.7020000000000001
 31
0.0
  0
LINE
  5
117
330
1A
100
AcDbEntity
  8
0
100
AcDbLine
 10
3.943999999999999
 20
0.7020000000000001
 30
0.0
 11
3.943999999999999
 21
0.9079999999999998
 31
0.0
  0
LINE
  5
118
330
1A
100
AcDbEntity
  8
0
100
AcDbLine
 10
3.875
 20
0.8740000000000001
 30
0.0
 11
3.841
 21
0.9079999999999998
 31
0.0
  0
LINE
  5
119
330
1A
100
AcDbEntity
  8
0
100
AcDbLine
 10
3.841
 20
0.9079999999999998
 30
0.0
 11
3.875
 21
0.8740000000000001
 31
0.0
  0
LINE
  5
11A
330
1A
100
AcDbEntity
  8
0
100
AcDbLine
 10
3.841
 20
0.9079999999999998
 30
0.0
 11
3.771999999999999
 21
0.9079999999999998
 31
0.0
  0
LINE
  5
11B
330
1A
100
AcDbEntity
  8
0
100
AcDbLine
 10
3.771999999999999
 20
0.9079999999999998
 30
0.0
 11
3.841
 21
0.9079999999999998
 31
0.0
  0
LINE
  5
11C
330
1A
100
AcDbEntity
  8
0
100
AcDbLine
 10
3.771999999999999
 20
0.9079999999999998
 30
0.0
 11
3.737
 21
0.8740000000000001
 31
0.0
  0
LINE
  5
11D
330
1A
100
AcDbEntity
  8
0
100
AcDbLine
 10
3.737
 20
0.8740000000000001
 30
0.0
 11
3.771999999999999
 21
0.9079999999999998
 31
0.0
  0
LINE
  5
11E
330
1A
100
AcDbEntity
  8
0
100
AcDbLine
 10
3.737
 20
0.8740000000000001
 30
0.0
 11
3.737
 21
0.736
 31
0.0
  0
LINE
  5
11F
330
1A
100
AcDbEntity
  8
0
100
AcDbLine
 10
3.737
 20
0.736
 30
0.0
 11
3.737
 21
0.8740000000000001
 31
0.0
  0
LINE
  5
120
330
1A
100
AcDbEntity
  8
0
100
AcDbLine
 10
3.737
 20
0.736
 30
0.0
 11
3.771999999999999
 21
0.7020000000000001
 31
0.0
  0
LINE
  5
121
330
1A
100
AcDbEntity
  8
0
100
AcDbLine
 10
3.771999999999999
 20
0.7020000000000001
 30
0.0
 11
3.737
 21
0.736
 31
0.0
  0
LINE
  5
122
330
1A
100
AcDbEntity
  8
0
100
AcDbLine
 10
3.771999999999999
 20
0.7020000000000001
 30
0.0
 11
3.841
 21
0.7020000000000001
 31
0.0
  0
LINE
  5
123
330
1A
100
AcDbEntity
  8
0
100
AcDbLine
 10
3.841
 20
0.7020000000000001
 30
0.0
 11
3.771999999999999
 21
0.7020000000000001
 31
0.0
  0
LINE
  5
124
330
1A
100
AcDbEntity
  8
0
100
AcDbLine
 10
3.841
 20
0.7020000000000001
 30
0.0
 11
3.875
 21
0.736
 31
0.0
  0
LINE
  5
125
330
1A
100
AcDbEntity
  8
0
100
AcDbLine
 10
3.875
 20
0.736
 30
0.0
 11
3.841
 21
0.7020000000000001
 31
0.0
  0
LINE
  5
126
330
1A
100
AcDbEntity
  8
0
100
AcDbLine
 10
8.572
 20
0.736
 30
0.0
 11
8.605999999999999
 21
0.7020000000000001
 31
0.0
  0
LINE
  5
127
330
1A
100
AcDbEntity
  8
0
100
AcDbLine
 10
8.605999999999999
 20
0.7020000000000001
 30
0.0
 11
8.572
 21
0.736
 31
0.0
  0
LINE
  5
128
330
1A
100
AcDbEntity
  8
0
100
AcDbLine
 10
8.605999999999999
 20
0.7020000000000001
 30
0.0
 11
8.675
 21
0.7020000000000001
 31
0.0
  0
LINE
  5
129
330
1A
100
AcDbEntity
  8
0
100
AcDbLine
 10
8.675
 20
0.7020000000000001
 30
0.0
 11
8.605999999999999
 21
0.7020000000000001
 31
0.0
  0
LINE
  5
12A
330
1A
100
AcDbEntity
  8
0
100
AcDbLine
 10
8.675
 20
0.7020000000000001
 30
0.0
 11
8.71
 21
0.736
 31
0.0
  0
LINE
  5
12B
330
1A
100
AcDbEntity
  8
0
100
AcDbLine
 10
8.71
 20
0.736
 30
0.0
 11
8.675
 21
0.7020000000000001
 31
0.0
  0
LINE
  5
12C
330
1A
100
AcDbEntity
  8
0
100
AcDbLine
 10
8.71
 20
0.736
 30
0.0
 11
8.71
 21
0.7709999999999999
 31
0.0
  0
LINE
  5
12D
330
1A
100
AcDbEntity
  8
0
100
AcDbLine
 10
8.71
 20
0.7709999999999999
 30
0.0
 11
8.71
 21
0.736
 31
0.0
  0
LINE
  5
12E
330
1A
100
AcDbEntity
  8
0
100
AcDbLine
 10
8.71
 20
0.7709999999999999
 30
0.0
 11
8.675
 21
0.805
 31
0.0
  0
LINE
  5
12F
330
1A
100
AcDbEntity
  8
0
100
AcDbLine
 10
8.675
 20
0.805
 30
0.0
 11
8.71
 21
0.7709999999999999
 31
0.0
  0
LINE
  5
130
330
1A
100
AcDbEntity
  8
0
100
AcDbLine
 10
8.675
 20
0.805
 30
0.0
 11
8.641
 21
0.805
 31
0.0
  0
LINE
  5
131
330
1A
100
AcDbEntity
  8
0
100
AcDbLine
 10
8.641
 20
0.805
 30
0.0
 11
8.675
 21
0.805
 31
0.0
  0
LINE
  5
132
330
1A
100
AcDbEntity
  8
0
100
AcDbLine
 10
8.675
 20
0.805
 30
0.0
 11
8.71
 21
0.84
 31
0.0
  0
LINE
  5
133
330
1A
100
AcDbEntity
  8
0
100
AcDbLine
 10
8.71
 20
0.84
 30
0.0
 11
8.675
 21
0.805
 31
0.0
  0
LINE
  5
134
330
1A
100
AcDbEntity
  8
0
100
AcDbLine
 10
8.71
 20
0.84
 30
0.0
 11
8.71
 21
0.8740000000000001
 31
0.0
  0
LINE
  5
135
330
1A
100
AcDbEntity
  8
0
100
AcDbLine
 10
8.71
 20
0.8740000000000001
 30
0.0
 11
8.71
 21
0.84
 31
0.0
  0
LINE
  5
136
330
1A
100
AcDbEntity
  8
0
100
AcDbLine
 10
8.71
 20
0.8740000000000001
 30
0.0
 11
8.675
 21
0.9079999999999998
 31
0.0
  0
LINE
  5
137
330
1A
100
AcDbEntity
  8
0
100
AcDbLine
 10
8.675
 20
0.9079999999999998
 30
0.0
 11
8.71
 21
0.8740000000000001
 31
0.0
  0
LINE
  5
138
330
1A
100
AcDbEntity
  8
0
100
AcDbLine
 10
8.675
 20
0.9079999999999998
 30
0.0
 11
8.605999999999999
 21
0.9079999999999998
 31
0.0
  0
LINE
  5
139
330
1A
100
AcDbEntity
  8
0
100
AcDbLine
 10
8.605999999999999
 20
0.9079999999999998
 30
0.0
 11
8.675
 21
0.9079999999999998
 31
0.0
  0
LINE
  5
13A
330
1A
100
AcDbEntity
  8
0
100
AcDbLine
 10
8.605999999999999
 20
0.9079999999999998
 30
0.0
 11
8.572
 21
0.8740000000000001
 31
0.0
  0
LINE
  5
13B
330
1A
100
AcDbEntity
  8
0
100
AcDbLine
 10
8.572
 20
0.8740000000000001
 30
0.0
 11
8.605999999999999
 21
0.9079999999999998
 31
0.0
  0
LINE
  5
13C
330
1A
100
AcDbEntity
  8
0
100
AcDbLine
 10
8.295999999999999
 20
0.7020000000000001
 30
0.0
 11
8.157999999999999
 21
0.7020000000000001
 31
0.0
  0
LINE
  5
13D
330
1A
100
AcDbEntity
  8
0
100
AcDbLine
 10
8.157999999999999
 20
0.7020000000000001
 30
0.0
 11
8.295999999999999
 21
0.7020000000000001
 31
0.0
  0
LINE
  5
13E
330
1A
100
AcDbEntity
  8
0
100
AcDbLine
 10
8.157999999999999
 20
0.7020000000000001
 30
0.0
 11
8.157999999999999
 21
0.9079999999999998
 31
0.0
  0
LINE
  5
13F
330
1A
100
AcDbEntity
  8
0
100
AcDbLine
 10
8.157999999999999
 20
0.9079999999999998
 30
0.0
 11
8.157999999999999
 21
0.7020000000000001
 31
0.0
  0
LINE
  5
140
330
1A
100
AcDbEntity
  8
0
100
AcDbLine
 10
8.089
 20
0.7020000000000001
 30
0.0
 11
7.951
 21
0.7020000000000001
 31
0.0
  0
LINE
  5
141
330
1A
100
AcDbEntity
  8
0
100
AcDbLine
 10
7.951
 20
0.7020000000000001
 30
0.0
 11
8.089
 21
0.7020000000000001
 31
0.0
  0
LINE
  5
142
330
1A
100
AcDbEntity
  8
0
100
AcDbLine
 10
7.951
 20
0.7020000000000001
 30
0.0
 11
7.951
 21
0.9079999999999998
 31
0.0
  0
LINE
  5
143
330
1A
100
AcDbEntity
  8
0
100
AcDbLine
 10
7.951
 20
0.9079999999999998
 30
0.0
 11
7.951
 21
0.7020000000000001
 31
0.0
  0
LINE
  5
144
330
1A
100
AcDbEntity
  8
0
100
AcDbLine
 10
7.882
 20
0.7020000000000001
 30
0.0
 11
7.743999999999999
 21
0.7020000000000001
 31
0.0
  0
LINE
  5
145
330
1A
100
AcDbEntity
  8
0
100
AcDbLine
 10
7.743999999999999
 20
0.7020000000000001
 30
0.0
 11
7.882
 21
0.7020000000000001
 31
0.0
  0
LINE
  5
146
330
1A
100
AcDbEntity
  8
0
100
AcDbLine
 10
7.812999999999999
 20
0.805
 30
0.0
 11
7.743999999999999
 21
0.805
 31
0.0
  0
LINE
  5
147
330
1A
100
AcDbEntity
  8
0
100
AcDbLine
 10
7.743999999999999
 20
0.805
 30
0.0
 11
7.812999999999999
 21
0.805
 31
0.0
  0
LINE
  5
148
330
1A
100
AcDbEntity
  8
0
100
AcDbLine
 10
7.882
 20
0.9079999999999998
 30
0.0
 11
7.743999999999999
 21
0.9079999999999998
 31
0.0
  0
LINE
  5
149
330
1A
100
AcDbEntity
  8
0
100
AcDbLine
 10
7.743999999999999
 20
0.9079999999999998
 30
0.0
 11
7.882
 21
0.9079999999999998
 31
0.0
  0
LINE
  5
14A
330
1A
100
AcDbEntity
  8
0
100
AcDbLine
 10
7.743999999999999
 20
0.9079999999999998
 30
0.0
 11
7.743999999999999
 21
0.7020000000000001
 31
0.0
  0
LINE
  5
14B
330
1A
100
AcDbEntity
  8
0
100
AcDbLine
 10
7.743999999999999
 20
0.7020000000000001
 30
0.0
 11
7.743999999999999
 21
0.9079999999999998
 31
0.0
  0
LINE
  5
14C
330
1A
100
AcDbEntity
  8
0
100
AcDbLine
 10
7.674999999999999
 20
0.8740000000000001
 30
0.0
 11
7.639999999999999
 21
0.9079999999999998
 31
0.0
  0
LINE
  5
14D
330
1A
100
AcDbEntity
  8
0
100
AcDbLine
 10
7.639999999999999
 20
0.9079999999999998
 30
0.0
 11
7.674999999999999
 21
0.8740000000000001
 31
0.0
  0
LINE
  5
14E
330
1A
100
AcDbEntity
  8
0
100
AcDbLine
 10
7.639999999999999
 20
0.9079999999999998
 30
0.0
 11
7.571
 21
0.9079999999999998
 31
0.0
  0
LINE
  5
14F
330
1A
100
AcDbEntity
  8
0
100
AcDbLine
 10
7.571
 20
0.9079999999999998
 30
0.0
 11
7.639999999999999
 21
0.9079999999999998
 31
0.0
  0
LINE
  5
150
330
1A
100
AcDbEntity
  8
0
100
AcDbLine
 10
7.571
 20
0.9079999999999998
 30
0.0
 11
7.537
 21
0.8740000000000001
 31
0.0
  0
LINE
  5
151
330
1A
100
AcDbEntity
  8
0
100
AcDbLine
 10
7.537
 20
0.8740000000000001
 30
0.0
 11
7.571
 21
0.9079999999999998
 31
0.0
  0
LINE
  5
152
330
1A
100
AcDbEntity
  8
0
100
AcDbLine
 10
7.537
 20
0.8740000000000001
 30
0.0
 11
7.537
 21
0.736
 31
0.0
  0
LINE
  5
153
330
1A
100
AcDbEntity
  8
0
100
AcDbLine
 10
7.537
 20
0.736
 30
0.0
 11
7.537
 21
0.8740000000000001
 31
0.0
  0
LINE
  5
154
330
1A
100
AcDbEntity
  8
0
100
AcDbLine
 10
7.537
 20
0.736
 30
0.0
 11
7.571
 21
0.7020000000000001
 31
0.0
  0
LINE
  5
155
330
1A
100
AcDbEntity
  8
0
100
AcDbLine
 10
7.571
 20
0.7020000000000001
 30
0.0
 11
7.537
 21
0.736
 31
0.0
  0
LINE
  5
156
330
1A
100
AcDbEntity
  8
0
100
AcDbLine
 10
7.571
 20
0.7020000000000001
 30
0.0
 11
7.639999999999999
 21
0.7020000000000001
 31
0.0
  0
LINE
  5
157
330
1A
100
AcDbEntity
  8
0
100
AcDbLine
 10
7.639999999999999
 20
0.7020000000000001
 30
0.0
 11
7.571
 21
0.7020000000000001
 31
0.0
  0
LINE
  5
158
330
1A
100
AcDbEntity
  8
0
100
AcDbLine
 10
7.639999999999999
 20
0.7020000000000001
 30
0.0
 11
7.674999999999999
 21
0.736
 31
0.0
  0
LINE
  5
159
330
1A
100
AcDbEntity
  8
0
100
AcDbLine
 10
7.674999999999999
 20
0.736
 30
0.0
 11
7.639999999999999
 21
0.7020000000000001
 31
0.0
  0
LINE
  5
15A
330
1A
100
AcDbEntity
  8
0
100
AcDbLine
 10
3.693
 20
2.796
 30
0.0
 11
3.381999999999999
 21
2.796
 31
0.0
  0
LINE
  5
15B
330
1A
100
AcDbEntity
  8
0
100
AcDbLine
 10
3.606
 20
2.831
 30
0.0
 11
3.693
 21
2.796
 31
0.0
  0
LINE
  5
15C
330
1A
100
AcDbEntity
  8
0
100
AcDbLine
 10
3.693
 20
2.796
 30
0.0
 11
3.606
 21
2.762
 31
0.0
  0
LINE
  5
15D
330
1A
100
AcDbEntity
  8
0
100
AcDbLine
 10
5.658999999999999
 20
3.486
 30
0.0
 11
6.072
 21
3.486
 31
0.0
  0
LINE
  5
15E
330
1A
100
AcDbEntity
  8
0
100
AcDbLine
 10
6.072
 20
3.486
 30
0.0
 11
5.968999999999999
 21
3.52
 31
0.0
  0
LINE
  5
15F
330
1A
100
AcDbEntity
  8
0
100
AcDbLine
 10
5.968999999999999
 20
3.451
 30
0.0
 11
6.072
 21
3.486
 31
0.0
  0
LINE
  5
160
330
1A
100
AcDbEntity
  8
0
100
AcDbLine
 10
8.073
 20
2.796
 30
0.0
 11
8.349
 21
2.796
 31
0.0
  0
LINE
  5
161
330
1A
100
AcDbEntity
  8
0
100
AcDbLine
 10
8.349
 20
2.796
 30
0.0
 11
8.279999999999999
 21
2.831
 31
0.0
  0
LINE
  5
162
330
1A
100
AcDbEntity
  8
0
100
AcDbLine
 10
8.279999999999999
 20
2.762
 30
0.0
 11
8.349
 21
2.796
 31
0.0
  0
LINE
  5
163
330
1A
100
AcDbEntity
  8
0
100
AcDbLine
 10
6.072
 20
2.106999999999999
 30
0.0
 11
5.658999999999999
 21
2.106999999999999
 31
0.0
  0
LINE
  5
164
330
1A
100
AcDbEntity
  8
0
100
AcDbLine
 10
5.658999999999999
 20
2.106999999999999
 30
0.0
 11
5.762
 21
2.141
 31
0.0
  0
LINE
  5
165
330
1A
100
AcDbEntity
  8
0
100
AcDbLine
 10
5.762
 20
2.072
 30
0.0
 11
5.658999999999999
 21
2.106999999999999
 31
0.0
  0
LINE
  5
166
330
1A
100
AcDbEntity
  8
0
100
AcDbLine
 10
3.726999999999999
 20
2.933999999999999
 30
0.0
 11
3.313
 21
2.933999999999999
 31
0.0
  0
LINE
  5
167
330
1A
100
AcDbEntity
  8
0
100
AcDbLine
 10
3.313
 20
2.933999999999999
 30
0.0
 11
3.313
 21
2.657999999999999
 31
0.0
  0
LINE
  5
168
330
1A
100
AcDbEntity
  8
0
100
AcDbLine
 10
3.313
 20
2.657999999999999
 30
0.0
 11
3.726999999999999
 21
2.657999999999999
 31
0.0
  0
LINE
  5
169
330
1A
100
AcDbEntity
  8
0
100
AcDbLine
 10
3.726999999999999
 20
2.657999999999999
 30
0.0
 11
3.726999999999999
 21
1.969
 31
0.0
  0
LINE
  5
16A
330
1A
100
AcDbEntity
  8
0
100
AcDbLine
 10
3.726999999999999
 20
1.969
 30
0.0
 11
4.347999999999999
 21
1.969
 31
0.0
  0
LINE
  5
16B
330
1A
100
AcDbEntity
  8
0
100
AcDbLine
 10
4.347999999999999
 20
1.969
 30
0.0
 11
4.347999999999999
 21
1.761999999999999
 31
0.0
  0
LINE
  5
16C
330
1A
100
AcDbEntity
  8
0
100
AcDbLine
 10
4.347999999999999
 20
1.761999999999999
 30
0.0
 11
4.693
 21
1.761999999999999
 31
0.0
  0
LINE
  5
16D
330
1A
100
AcDbEntity
  8
0
100
AcDbLine
 10
4.693
 20
1.761999999999999
 30
0.0
 11
4.693
 21
1.969
 31
0.0
  0
LINE
  5
16E
330
1A
100
AcDbEntity
  8
0
100
AcDbLine
 10
4.693
 20
1.969
 30
0.0
 11
6.762
 21
1.969
 31
0.0
  0
LINE
  5
16F
330
1A
100
AcDbEntity
  8
0
100
AcDbLine
 10
6.762
 20
1.969
 30
0.0
 11
6.762
 21
1.761999999999999
 31
0.0
  0
LINE
  5
170
330
1A
100
AcDbEntity
  8
0
100
AcDbLine
 10
6.762
 20
1.761999999999999
 30
0.0
 11
7.107
 21
1.761999999999999
 31
0.0
  0
LINE
  5
171
330
1A
100
AcDbEntity
  8
0
100
AcDbLine
 10
7.107
 20
1.761999999999999
 30
0.0
 11
7.107
 21
1.969
 31
0.0
  0
LINE
  5
172
330
1A
100
AcDbEntity
  8
0
100
AcDbLine
 10
7.107
 20
1.969
 30
0.0
 11
8.003999999999999
 21
1.969
 31
0.0
  0
LINE
  5
173
330
1A
100
AcDbEntity
  8
0
100
AcDbLine
 10
8.003999999999999
 20
1.969
 30
0.0
 11
8.003999999999999
 21
2.657999999999999
 31
0.0
  0
LINE
  5
174
330
1A
100
AcDbEntity
  8
0
100
AcDbLine
 10
8.003999999999999
 20
2.657999999999999
 30
0.0
 11
8.417999999999999
 21
2.657999999999999
 31
0.0
  0
LINE
  5
175
330
1A
100
AcDbEntity
  8
0
100
AcDbLine
 10
8.417999999999999
 20
2.657999999999999
 30
0.0
 11
8.417999999999999
 21
2.933999999999999
 31
0.0
  0
LINE
  5
176
330
1A
100
AcDbEntity
  8
0
100
AcDbLine
 10
8.417999999999999
 20
2.933999999999999
 30
0.0
 11
8.003999999999999
 21
2.933999999999999
 31
0.0
  0
LINE
  5
177
330
1A
100
AcDbEntity
  8
0
100
AcDbLine
 10
3.726999999999999
 20
2.933999999999999
 30
0.0
 11
3.726999999999999
 21
3.623999999999999
 31
0.0
  0
LINE
  5
178
330
1A
100
AcDbEntity
  8
0
100
AcDbLine
 10
3.726999999999999
 20
3.623999999999999
 30
0.0
 11
4.623999999999999
 21
3.623999999999999
 31
0.0
  0
LINE
  5
179
330
1A
100
AcDbEntity
  8
0
100
AcDbLine
 10
4.623999999999999
 20
3.623999999999999
 30
0.0
 11
4.623999999999999
 21
3.831
 31
0.0
  0
LINE
  5
17A
330
1A
100
AcDbEntity
  8
0
100
AcDbLine
 10
4.623999999999999
 20
3.831
 30
0.0
 11
4.968999999999999
 21
3.831
 31
0.0
  0
LINE
  5
17B
330
1A
100
AcDbEntity
  8
0
100
AcDbLine
 10
4.968999999999999
 20
3.831
 30
0.0
 11
4.968999999999999
 21
3.623999999999999
 31
0.0
  0
LINE
  5
17C
330
1A
100
AcDbEntity
  8
0
100
AcDbLine
 10
4.968999999999999
 20
3.623999999999999
 30
0.0
 11
7.037999999999999
 21
3.623999999999999
 31
0.0
  0
LINE
  5
17D
330
1A
100
AcDbEntity
  8
0
100
AcDbLine
 10
7.037999999999999
 20
3.623999999999999
 30
0.0
 11
7.037999999999999
 21
3.831
 31
0.0
  0
LINE
  5
17E
330
1A
100
AcDbEntity
  8
0
100
AcDbLine
 10
7.037999999999999
 20
3.831
 30
0.0
 11
7.382999999999999
 21
3.831
 31
0.0
  0
LINE
  5
17F
330
1A
100
AcDbEntity
  8
0
100
AcDbLine
 10
7.382999999999999
 20
3.831
 30
0.0
 11
7.382999999999999
 21
3.623999999999999
 31
0.0
  0
LINE
  5
180
330
1A
100
AcDbEntity
  8
0
100
AcDbLine
 10
7.382999999999999
 20
3.623999999999999
 30
0.0
 11
8.003999999999999
 21
3.623999999999999
 31
0.0
  0
LINE
  5
181
330
1A
100
AcDbEntity
  8
0
100
AcDbLine
 10
8.003999999999999
 20
3.623999999999999
 30
0.0
 11
8.003999999999999
 21
2.933999999999999
 31
0.0
  0
ENDSEC
  0
SECTION
  2
OBJECTS
  0
DICTIONARY
  5
C
330
0
100
AcDbDictionary
281
     1
  3
ACAD_GROUP
350
D
  3
ACAD_MLINESTYLE
350
E
  3
ACAD_PLOTSTYLENAME
350
185
  3
ACAD_LAYOUT
350
187
  3
ACAD_PLOTSETTINGS
350
188
  0
DICTIONARY
  5
D
102
{ACAD_REACTORS
330
C
102
}
330
C
100
AcDbDictionary
281
     1
  0
DICTIONARY
  5
E
102
{ACAD_REACTORS
330
C
102
}
330
C
100
AcDbDictionary
281
     1
  3
STANDARD
350
13
  0
ACDBDICTIONARYWDFLT
  5
185
102
{ACAD_REACTORS
330
C
102
}
330
C
100
AcDbDictionary
281
     1
  3
Normal
350
186
100
AcDbDictionaryWithDefault
340
186
  0
DICTIONARY
  5
187
102
{ACAD_REACTORS
330
C
102
}
330
C
100
AcDbDictionary
281
     1
  3
Model
350
189
  3
Layout1
350
18A
  0
DICTIONARY
  5
188
102
{ACAD_REACTORS
330
C
102
}
330
C
100
AcDbDictionary
281
     1
  0
MLINESTYLE
  5
13
102
{ACAD_REACTORS
330
E
102
}
330
E
100
AcDbMlineStyle
  2
STANDARD
 70
     0
  3

 62
     0
 51
90.0
 52
90.0
 71
     2
 49
0.5
 62
   256
  6
BYLAYER
 49
-0.5
 62
   256
  6
BYLAYER
  0
ACDBPLACEHOLDER
  5
186
102
{ACAD_REACTORS
330
185
102
}
330
185
  0
LAYOUT
  5
189
102
{ACAD_REACTORS
330
187
102
}
330
187
100
AcDbPlotSettings
  1

  2
\\RSI-IABULIBRARY\KM5230
  4

  6

 40
0.0
 41
0.0
 42
0.0
 43
0.0
 44
0.0
 45
0.0
 46
0.0
 47
0.0
 48
0.0
 49
0.0
140
0.0
141
0.0
142
1.0
143
1.0
 70
  1712
 72
     0
 73
     0
 74
     0
  7

 75
     0
147
1.0
148
0.0
149
0.0
100
AcDbLayout
  1
Model
 70
     1
 71
     0
 10
0.0
 20
0.0
 11
12.0
 21
9.0
 12
0.0
 22
0.0
 32
0.0
 14
0.0
 24
0.0
 34
0.0
 15
0.0
 25
0.0
 35
0.0
146
0.0
 13
0.0
 23
0.0
 33
0.0
 16
1.0
 26
0.0
 36
0.0
 17
0.0
 27
1.0
 37
0.0
 76
     0
330
1A
  0
LAYOUT
  5
18A
102
{ACAD_REACTORS
330
187
102
}
330
187
100
AcDbPlotSettings
  1

  2
\\RSI-IABULIBRARY\KM5230
  4

  6

 40
0.0
 41
0.0
 42
0.0
 43
0.0
 44
0.0
 45
0.0
 46
0.0
 47
0.0
 48
0.0
 49
0.0
140
0.0
141
0.0
142
1.0
143
1.0
 70
   688
 72
     0
 73
     0
 74
     5
  7

 75
    16
147
1.0
148
0.0
149
0.0
100
AcDbLayout
  1
Layout1
 70
     1
 71
     1
 10
0.0
 20
0.0
 11
12.0
 21
9.0
 12
0.0
 22
0.0
 32
0.0
 14
1.000000000000000E+20
 24
1.000000000000000E+20
 34
1.000000000000000E+20
 15
-1.000000000000000E+20
 25
-1.000000000000000E+20
 35
-1.000000000000000E+20
146
0.0
 13
0.0
 23
0.0
 33
0.0
 16
1.0
 26
0.0
 36
0.0
 17
0.0
 27
1.0
 37
0.0
 76
     0
330
17
  0
ENDSEC
  0
EOF
